<?xml version='1.0' encoding='iso-8859-1'?>
<!-- Uploaded to: SVG Repo, www.svgrepo.com, Generator: SVG Repo Mixer Tools -->
<svg fill="#000000" height="800px" width="800px" version="1.1" xmlns="http://www.w3.org/2000/svg" viewBox="0 0 490 490" xmlns:xlink="http://www.w3.org/1999/xlink" enable-background="new 0 0 490 490">
  <path d="M455.606,353.833l-45.607-45.608c0,0-0.003-193.62-0.014-193.873c-0.149-3.519-1.511-6.723-3.677-9.207  c-0.003-0.003-0.005-0.006-0.008-0.009c-0.003-0.003-0.007-0.008-0.01-0.012c-0.22-0.25-101.517-101.504-101.518-101.504  c-2.474-2.126-5.646-3.46-9.128-3.607C295.393,0.003,95.001,0,95.001,0c-8.284,0-15,6.716-15,15v65H45c-8.284,0-15,6.716-15,15v380  c0,8.284,6.716,15,15,15h400c8.284,0,15-6.716,15-15V364.44C460,360.462,458.42,356.646,455.606,353.833z M310,51.213L358.786,100  H310V51.213z M110.001,30H280v85c0,8.284,6.716,15,15,15h84.999v148.225L186.169,84.394C183.355,81.581,179.541,80,175.562,80  h-65.561V30z M430,460H60V110h109.349L430,370.653V460z"/>
</svg>